<svg xmlns="http://www.w3.org/2000/svg" width="580" height="360" viewBox="0 0 580 360" fill="none">
  <rect width="580" height="360" rx="16" fill="#12151c" stroke="rgba(255,255,255,0.1)"/>
  <text x="24" y="36" fill="#5ee4b5" font-family="ui-monospace, monospace" font-size="11" letter-spacing="0.18em">CAPTURE PIPELINE</text>
  <g font-family="Inter, system-ui, sans-serif" font-size="13" fill="#e2e8f0">
    <rect x="24" y="56" width="120" height="64" rx="10" fill="rgba(139,92,246,0.15)" stroke="#8b5cf6"/>
    <text x="44" y="84" font-weight="600">Freeze</text>
    <text x="44" y="102" fill="#94a3b8" font-size="11">ScreenCaptureKit</text>
    <path d="M144 88 H168" stroke="#64748b"/>
    <polygon points="168,88 160,84 160,92" fill="#64748b"/>
    <rect x="168" y="56" width="120" height="64" rx="10" fill="rgba(255,255,255,0.04)" stroke="rgba(255,255,255,0.12)"/>
    <text x="188" y="84" font-weight="600">Select</text>
    <text x="188" y="102" fill="#94a3b8" font-size="11">Overlay</text>
    <path d="M288 88 H312" stroke="#64748b"/>
    <polygon points="312,88 304,84 304,92" fill="#64748b"/>
    <rect x="312" y="56" width="120" height="64" rx="10" fill="rgba(255,255,255,0.04)" stroke="rgba(255,255,255,0.12)"/>
    <text x="332" y="84" font-weight="600">Editor</text>
    <text x="332" y="102" fill="#94a3b8" font-size="11">Annotate</text>
    <path d="M432 88 H456" stroke="#64748b"/>
    <polygon points="456,88 448,84 448,92" fill="#64748b"/>
    <rect x="456" y="56" width="100" height="64" rx="10" fill="rgba(94,228,181,0.12)" stroke="#5ee4b5"/>
    <text x="476" y="84" font-weight="600">Ship</text>
    <text x="476" y="102" fill="#94a3b8" font-size="11">Copy · Save</text>
  </g>
  <rect x="24" y="148" width="532" height="188" rx="12" fill="#0b0d12" stroke="rgba(255,255,255,0.08)"/>
  <text x="40" y="178" fill="#64748b" font-family="ui-monospace, monospace" font-size="11">RENDER PIPELINE</text>
  <text x="40" y="210" fill="#cbd5e1" font-family="ui-monospace, monospace" font-size="12">raw Capture ’ CI adjustments ’ censor derive ’ Canvas ’ Beautify ’ export</text>
  <text x="40" y="240" fill="#5ee4b5" font-family="ui-monospace, monospace" font-size="12">on screen === saved</text>
  <text x="40" y="290" fill="#94a3b8" font-family="Inter, system-ui, sans-serif" font-size="13">Undo covers annotations only · Adjustments &amp; Beautify are document settings</text>
</svg>
